<svg width="170" height="41" viewBox="0 0 170 41" fill="none" xmlns="http://www.w3.org/2000/svg">
<rect width="170" height="41" fill="#BCBCBC"/>
<path d="M43.1211 13.2061H46.5494V28.3062H43.1211V23.4964H38.7063V28.3062H35.2781V13.2061H38.7063V20.1149H43.1211V13.2061Z" fill="white"/>
<path d="M50.7175 28.3062H47.3633L53.5785 12.9437C53.6279 12.798 53.7512 12.798 53.8005 12.9437L59.9911 28.3062H56.4642L55.9709 27.0236H51.1615L50.7175 28.3062ZM53.5539 20.4938L52.2714 23.9919H54.861L53.5539 20.4938Z" fill="white"/>
<path d="M64.3072 13.2061H60.8789V28.3062H64.3072V13.2061Z" fill="white"/>
<path d="M76.3924 28.3062H72.6928L70.9171 24.8373H69.6346V28.3062H66.2063V13.2061H71.0404C74.4686 13.2061 76.4171 15.7714 76.4171 19.1237C76.4171 21.31 75.6032 23.0299 74.0987 23.9919L76.3924 28.3062ZM70.8924 21.6307C72.4215 21.6307 72.9888 20.6104 72.9888 19.1529C72.9888 17.6953 72.4215 16.6459 70.8924 16.6459H69.6346V21.6307H70.8924Z" fill="white"/>
<path d="M87.861 28.5103C84.2847 28.5103 81.2264 25.3037 81.2264 20.7562C81.2264 16.2086 84.2601 13.0312 87.6883 13.0312C90.4507 13.0312 92.1278 14.4013 93.213 16.2669L90.648 18.3366C90.1547 17.4621 89.3655 16.5293 87.7623 16.5293C85.8879 16.5293 84.7287 18.3658 84.7287 20.7562C84.7287 23.1465 85.9125 24.983 87.861 24.983C89.5134 24.983 90.3273 24.0794 90.8699 22.8842L93.5089 24.8664C92.2264 27.4317 90.4507 28.5103 87.861 28.5103Z" fill="white"/>
<path d="M94.2982 22.4761V13.2061H97.7265V22.4178C97.7265 24.1377 98.3924 25.0997 99.8475 25.0997C101.303 25.0997 101.969 24.1377 101.969 22.4178V13.2061H105.397V22.4469C105.397 26.4989 103.054 28.5103 99.8475 28.5103C96.6413 28.5395 94.2982 26.528 94.2982 22.4761Z" fill="white"/>
<path d="M109.812 16.6168H106.408V13.2061H116.594V16.6168H113.215V28.3062H109.812V16.6168Z" fill="white"/>
<path d="M121.132 16.6168H117.753V13.2061H127.94V16.6168H124.536V28.3062H121.132V16.6168Z" fill="white"/>
<path d="M129.049 13.2061H138.002V16.6168H132.478V20.1149H137.09V23.3215H132.478V24.9247H138.274V28.3062H129.049V13.2061Z" fill="white"/>
<path d="M149.298 28.3062H145.599L143.823 24.8373H142.54V28.3062H139.137V13.2061H143.971C147.399 13.2061 149.347 15.7714 149.347 19.1237C149.347 21.31 148.534 23.0299 147.029 23.9919L149.298 28.3062ZM143.798 21.6307C145.327 21.6307 145.895 20.6104 145.895 19.1529C145.895 17.6953 145.327 16.6459 143.798 16.6459H142.54V21.6307H143.798Z" fill="white"/>
<path d="M148.879 13.2061H152.652L155.538 19.3569L158.399 13.2061H162L157.191 22.9716V28.3062H153.762V23.0882L148.879 13.2061Z" fill="white"/>
<path d="M158.769 26.9069C158.769 26.0616 159.336 25.4494 160.027 25.4494C160.693 25.4494 161.285 26.0616 161.285 26.9069C161.285 27.7523 160.717 28.3645 160.027 28.3645C159.336 28.3645 158.769 27.7523 158.769 26.9069ZM160.027 28.1313C160.594 28.1313 161.038 27.6066 161.038 26.9069C161.038 26.2073 160.594 25.6826 160.027 25.6826C159.46 25.6826 159.016 26.2073 159.016 26.9069C159.016 27.6066 159.46 28.1313 160.027 28.1313ZM159.756 27.7523H159.534V26.0616H160.076C160.422 26.0616 160.569 26.2073 160.569 26.5571C160.569 26.8486 160.397 26.9944 160.2 27.0235L160.619 27.7815H160.372L160.002 27.0527H159.756V27.7523ZM160.027 26.8195C160.2 26.8195 160.372 26.7903 160.372 26.5571C160.372 26.3531 160.2 26.3239 160.052 26.3239H159.756V26.8486H160.027V26.8195Z" fill="white"/>
<path d="M28.9148 15.2466C28.6188 15.6547 28.3229 16.0629 28.0022 16.5001C28.3229 17.6953 28.4955 18.9488 28.5202 20.2023C28.5448 21.4558 28.4215 22.6801 28.1749 23.9336C28.4462 24.2542 28.7175 24.604 29.0135 24.9539C28.5695 25.566 28.0762 26.0907 27.509 26.4989C27.3363 26.6155 27.2377 26.7612 27.139 26.9653C25.7825 29.8512 23.7848 31.8043 21.0717 32.6205C18.4081 33.4368 15.8924 32.912 13.5 31.2796C11.9215 30.201 10.6637 28.7143 9.67713 26.8778C9.6278 26.7904 9.57848 26.7029 9.52915 26.6155C9.52915 26.5863 9.50448 26.5863 9.45516 26.5572C8.98655 26.5572 8.49327 26.5572 8 26.5572C8 22.4469 8 18.3949 8 14.2847C8.44395 14.2847 8.86323 14.2847 9.28251 14.2847C9.3565 14.168 9.40583 14.0514 9.45516 13.9348C11.1076 10.9032 13.352 8.95005 16.3363 8.25043C20.3072 7.28845 24.4013 9.12496 26.7197 13.2935C26.7937 13.4393 26.8924 13.5267 27.0157 13.6142C27.6816 13.964 28.2735 14.4887 28.7915 15.1009C28.8408 15.13 28.8655 15.1883 28.9148 15.2466ZM26.4484 27.2276C23.4395 28.1313 20.8498 27.5483 18.852 24.4583C18.852 26.4406 18.852 28.3645 18.852 30.3176C17.8161 30.3176 16.8049 30.3176 15.7691 30.3176C15.7691 27.694 15.7691 25.0705 15.7691 22.4469C14.1906 22.4469 12.6368 22.4469 11.0583 22.4469C11.0583 23.8461 11.0583 25.1871 11.0583 26.5863C10.6883 26.5863 10.3184 26.5863 9.92377 26.5863C9.97309 26.7029 10.0224 26.8195 10.0717 26.8778C10.935 28.452 12.0448 29.7054 13.426 30.58C15.4238 31.8335 17.5448 32.1833 19.7399 31.7752C22.0583 31.3379 24.0314 30.1427 25.7085 28.1896C25.9798 27.8689 26.2018 27.5483 26.4484 27.2276ZM25.7825 13.1186C24.0807 10.874 20.8498 8.89175 17.1749 9.44561C15.843 9.64967 14.5605 10.1744 13.4013 10.9906C12.2422 11.836 11.2556 12.8854 10.4417 14.2555C10.6883 14.2555 10.861 14.2555 11.0583 14.2555C11.0583 15.509 11.0583 16.7042 11.0583 17.9285C12.6368 17.9285 14.1906 17.9285 15.7691 17.9285C15.7691 15.5964 15.7691 13.2935 15.7691 10.9615C16.8049 10.9615 17.7915 10.9615 18.8274 10.9615C18.8274 11.253 18.8274 11.5445 18.8274 11.8068C18.8274 12.0983 18.8274 12.3898 18.8274 12.6814C18.8274 12.9729 18.8274 13.2352 18.8274 13.5267C18.8274 13.8182 18.8274 14.1097 18.8274 14.4013C18.8274 14.6928 18.8274 14.9551 18.8274 15.2466C18.8274 15.5381 18.8027 15.8005 18.852 16.092C18.8767 16.0629 18.8767 16.0629 18.9013 16.0629C18.9507 16.0046 18.9753 15.9171 19.0247 15.8588C19.6659 14.8385 20.5045 14.0514 21.491 13.5559C22.7982 12.9146 24.13 12.8271 25.5112 13.0895C25.6099 13.0895 25.6839 13.0895 25.7825 13.1186ZM28.0022 23.7295C28.5942 21.3683 28.5202 19.0654 27.8049 16.7625C27.5336 17.1123 27.3117 17.4329 27.0897 17.7536C26.917 17.5787 26.7937 17.4621 26.6704 17.3163C26.3251 16.9665 25.9305 16.675 25.5112 16.4418C23.6368 15.4798 21.639 16.5584 21.0471 18.8322C20.8744 19.5318 20.8251 20.2314 20.9238 20.931C21.1704 23.1465 22.7242 24.8664 24.9439 24.3125C25.6345 24.1376 26.2265 23.6712 26.7444 23.1465C26.8677 23.0299 27.0157 22.8841 27.139 22.7384C27.287 22.9133 27.4103 23.0882 27.5583 23.234C27.7063 23.3797 27.8543 23.5255 28.0022 23.7295Z" fill="white"/>
</svg>
