<svg width="340" height="82" viewBox="0 0 340 82" fill="none" xmlns="http://www.w3.org/2000/svg">
<rect width="340" height="82" fill="#BCBCBC"/>
<path d="M25.8931 24.0195H22.9379C22.8839 23.6372 22.7737 23.2976 22.6072 23.0007C22.4408 22.6993 22.2272 22.4429 21.9663 22.2315C21.7054 22.0201 21.404 21.8582 21.0621 21.7457C20.7248 21.6333 20.3582 21.5771 19.9624 21.5771C19.2472 21.5771 18.6242 21.7547 18.0934 22.1101C17.5626 22.4609 17.151 22.9737 16.8587 23.6484C16.5663 24.3187 16.4201 25.1328 16.4201 26.0909C16.4201 27.076 16.5663 27.9036 16.8587 28.5739C17.1555 29.2441 17.5694 29.7501 18.1001 30.092C18.6309 30.4338 19.2449 30.6048 19.9421 30.6048C20.3335 30.6048 20.6955 30.553 21.0284 30.4496C21.3658 30.3461 21.6649 30.1954 21.9258 29.9975C22.1867 29.7951 22.4026 29.55 22.5735 29.2621C22.7489 28.9742 22.8704 28.6458 22.9379 28.277L25.8931 28.2905C25.8166 28.9247 25.6255 29.5365 25.3196 30.1257C25.0182 30.7105 24.6112 31.2345 24.0984 31.6978C23.5901 32.1566 22.9828 32.521 22.2766 32.7908C21.5749 33.0562 20.781 33.1889 19.8949 33.1889C18.6624 33.1889 17.5604 32.91 16.5888 32.3523C15.6217 31.7945 14.857 30.9871 14.2947 29.93C13.737 28.873 13.4581 27.5933 13.4581 26.0909C13.4581 24.584 13.7415 23.3021 14.3082 22.245C14.875 21.188 15.6442 20.3828 16.6158 19.8295C17.5874 19.2718 18.6804 18.9929 19.8949 18.9929C20.6955 18.9929 21.4377 19.1053 22.1214 19.3303C22.8097 19.5552 23.4192 19.8835 23.9499 20.3153C24.4807 20.7427 24.9125 21.2667 25.2454 21.8874C25.5827 22.5082 25.7987 23.2189 25.8931 24.0195ZM36.5233 19.1818H39.4448V28.1555C39.4448 29.1631 39.2041 30.0447 38.7228 30.8004C38.246 31.5561 37.5781 32.1454 36.7189 32.5682C35.8598 32.9865 34.859 33.1957 33.7164 33.1957C32.5694 33.1957 31.5663 32.9865 30.7072 32.5682C29.8481 32.1454 29.1801 31.5561 28.7033 30.8004C28.2265 30.0447 27.9881 29.1631 27.9881 28.1555V19.1818H30.9096V27.9059C30.9096 28.4322 31.0243 28.9 31.2537 29.3093C31.4876 29.7186 31.816 30.0402 32.2388 30.2741C32.6616 30.508 33.1542 30.625 33.7164 30.625C34.2832 30.625 34.7757 30.508 35.1941 30.2741C35.6169 30.0402 35.943 29.7186 36.1724 29.3093C36.4063 28.9 36.5233 28.4322 36.5233 27.9059V19.1818ZM41.8485 33V19.1818H47.3002C48.3437 19.1818 49.2343 19.3685 49.972 19.7418C50.7142 20.1107 51.2787 20.6347 51.6656 21.3139C52.0569 21.9886 52.2526 22.7826 52.2526 23.6957C52.2526 24.6133 52.0547 25.4027 51.6588 26.0639C51.263 26.7206 50.6895 27.2244 49.9383 27.5753C49.1916 27.9261 48.2875 28.1016 47.2259 28.1016H43.5757V25.7536H46.7536C47.3114 25.7536 47.7747 25.6771 48.1436 25.5241C48.5124 25.3712 48.7868 25.1418 48.9667 24.8359C49.1511 24.5301 49.2433 24.15 49.2433 23.6957C49.2433 23.2369 49.1511 22.85 48.9667 22.5352C48.7868 22.2203 48.5102 21.9819 48.1368 21.82C47.768 21.6535 47.3024 21.5703 46.7401 21.5703H44.77V33H41.8485ZM49.3108 26.7116L52.7451 33H49.52L46.1599 26.7116H49.3108ZM54.3172 33V19.1818H59.7689C60.8125 19.1818 61.7031 19.3685 62.4408 19.7418C63.183 20.1107 63.7475 20.6347 64.1343 21.3139C64.5257 21.9886 64.7213 22.7826 64.7213 23.6957C64.7213 24.6133 64.5234 25.4027 64.1276 26.0639C63.7317 26.7206 63.1582 27.2244 62.407 27.5753C61.6604 27.9261 60.7562 28.1016 59.6947 28.1016H56.0445V25.7536H59.2224C59.7802 25.7536 60.2435 25.6771 60.6123 25.5241C60.9811 25.3712 61.2555 25.1418 61.4355 24.8359C61.6199 24.5301 61.7121 24.15 61.7121 23.6957C61.7121 23.2369 61.6199 22.85 61.4355 22.5352C61.2555 22.2203 60.9789 21.9819 60.6056 21.82C60.2367 21.6535 59.7712 21.5703 59.2089 21.5703H57.2387V33H54.3172ZM61.7796 26.7116L65.2139 33H61.9887L58.6286 26.7116H61.7796ZM66.786 33V19.1818H76.097V21.5906H69.7075V24.8832H75.618V27.2919H69.7075V30.5913H76.124V33H66.786ZM89.9776 19.1818V33H87.4542L81.4425 24.3029H81.3413V33H78.4197V19.1818H80.9837L86.9482 27.8722H87.0696V19.1818H89.9776ZM91.8651 21.5906V19.1818H103.214V21.5906H98.9834V33H96.0956V21.5906H91.8651ZM109.48 33V19.1818H118.791V21.5906H112.402V24.8832H118.312V27.2919H112.402V30.5913H118.818V33H109.48ZM132.672 19.1818V33H130.149L124.137 24.3029H124.036V33H121.114V19.1818H123.678L129.642 27.8722H129.764V19.1818H132.672ZM144.248 23.6484C144.154 23.3201 144.021 23.0299 143.85 22.7781C143.679 22.5217 143.47 22.3058 143.223 22.1303C142.98 21.9504 142.701 21.8132 142.386 21.7188C142.076 21.6243 141.732 21.5771 141.354 21.5771C140.648 21.5771 140.027 21.7525 139.492 22.1033C138.961 22.4542 138.547 22.9647 138.25 23.6349C137.953 24.3007 137.805 25.1148 137.805 26.0774C137.805 27.04 137.951 27.8587 138.243 28.5334C138.536 29.2081 138.95 29.7231 139.485 30.0785C140.02 30.4293 140.652 30.6048 141.381 30.6048C142.042 30.6048 142.607 30.4878 143.074 30.2539C143.547 30.0155 143.907 29.6804 144.154 29.2486C144.406 28.8168 144.532 28.3062 144.532 27.717L145.126 27.8047H141.563V25.6051H147.345V27.3459C147.345 28.5604 147.089 29.6039 146.576 30.4766C146.063 31.3447 145.357 32.0149 144.458 32.4872C143.558 32.955 142.528 33.1889 141.367 33.1889C140.072 33.1889 138.934 32.9033 137.953 32.332C136.973 31.7563 136.208 30.9399 135.659 29.8828C135.115 28.8213 134.843 27.5618 134.843 26.1044C134.843 24.9844 135.005 23.9858 135.329 23.1087C135.657 22.227 136.116 21.4804 136.705 20.8686C137.294 20.2569 137.98 19.7913 138.763 19.4719C139.546 19.1526 140.394 18.9929 141.307 18.9929C142.089 18.9929 142.818 19.1076 143.493 19.337C144.167 19.5619 144.766 19.8813 145.287 20.2951C145.814 20.7089 146.243 21.2015 146.576 21.7727C146.909 22.3395 147.123 22.9647 147.217 23.6484H144.248ZM151.495 33H148.364L153.134 19.1818H156.899L161.663 33H158.532L155.071 22.3395H154.963L151.495 33ZM151.299 27.5685H158.694V29.8491H151.299V27.5685ZM171.839 23.6484C171.745 23.3201 171.612 23.0299 171.441 22.7781C171.27 22.5217 171.061 22.3058 170.814 22.1303C170.571 21.9504 170.292 21.8132 169.977 21.7188C169.667 21.6243 169.323 21.5771 168.945 21.5771C168.238 21.5771 167.618 21.7525 167.082 22.1033C166.552 22.4542 166.138 22.9647 165.841 23.6349C165.544 24.3007 165.396 25.1148 165.396 26.0774C165.396 27.04 165.542 27.8587 165.834 28.5334C166.127 29.2081 166.54 29.7231 167.076 30.0785C167.611 30.4293 168.243 30.6048 168.972 30.6048C169.633 30.6048 170.197 30.4878 170.665 30.2539C171.138 30.0155 171.497 29.6804 171.745 29.2486C171.997 28.8168 172.123 28.3062 172.123 27.717L172.716 27.8047H169.154V25.6051H174.936V27.3459C174.936 28.5604 174.68 29.6039 174.167 30.4766C173.654 31.3447 172.948 32.0149 172.048 32.4872C171.149 32.955 170.119 33.1889 168.958 33.1889C167.663 33.1889 166.525 32.9033 165.544 32.332C164.564 31.7563 163.799 30.9399 163.25 29.8828C162.706 28.8213 162.434 27.5618 162.434 26.1044C162.434 24.9844 162.596 23.9858 162.919 23.1087C163.248 22.227 163.707 21.4804 164.296 20.8686C164.885 20.2569 165.571 19.7913 166.354 19.4719C167.136 19.1526 167.984 18.9929 168.897 18.9929C169.68 18.9929 170.409 19.1076 171.084 19.337C171.758 19.5619 172.357 19.8813 172.878 20.2951C173.405 20.7089 173.834 21.2015 174.167 21.7727C174.5 22.3395 174.714 22.9647 174.808 23.6484H171.839ZM177.131 33V19.1818H186.442V21.5906H180.052V24.8832H185.963V27.2919H180.052V30.5913H186.469V33H177.131ZM188.764 19.1818H192.367L196.173 28.4659H196.335L200.14 19.1818H203.743V33H200.909V24.006H200.795L197.219 32.9325H195.289L191.713 23.9723H191.598V33H188.764V19.1818ZM206.15 33V19.1818H215.461V21.5906H209.072V24.8832H214.982V27.2919H209.072V30.5913H215.488V33H206.15ZM229.342 19.1818V33H226.818L220.807 24.3029H220.706V33H217.784V19.1818H220.348L226.312 27.8722H226.434V19.1818H229.342ZM231.229 21.5906V19.1818H242.578V21.5906H238.348V33H235.46V21.5906H231.229ZM251.955 33L248.001 19.1818H251.193L253.48 28.783H253.595L256.118 19.1818H258.851L261.367 28.8033H261.489L263.776 19.1818H266.967L263.014 33H260.166L257.535 23.9656H257.427L254.802 33H251.955ZM271.453 19.1818V33H268.531V19.1818H271.453ZM273.33 21.5906V19.1818H284.679V21.5906H280.448V33H277.56V21.5906H273.33ZM286.548 33V19.1818H289.469V24.8832H295.4V19.1818H298.315V33H295.4V27.2919H289.469V33H286.548ZM25.2589 49.1818V63H22.7354L16.7237 54.3029H16.6225V63H13.701V49.1818H16.2649L22.2294 57.8722H22.3509V49.1818H25.2589ZM30.0544 63H26.9237L31.694 49.1818H35.4589L40.2224 63H37.0917L33.6304 52.3395H33.5225L30.0544 63ZM29.8588 57.5685H37.2536V59.8491H29.8588V57.5685ZM39.6708 51.5906V49.1818H51.0195V51.5906H46.7891V63H43.9013V51.5906H39.6708ZM55.81 49.1818V63H52.8885V49.1818H55.81ZM70.9118 56.0909C70.9118 57.5978 70.6262 58.8797 70.055 59.9368C69.4882 60.9938 68.7145 61.8013 67.7339 62.359C66.7578 62.9123 65.6603 63.1889 64.4413 63.1889C63.2133 63.1889 62.1113 62.91 61.1352 62.3523C60.1591 61.7945 59.3877 60.9871 58.8209 59.93C58.2542 58.873 57.9708 57.5933 57.9708 56.0909C57.9708 54.584 58.2542 53.3021 58.8209 52.245C59.3877 51.188 60.1591 50.3828 61.1352 49.8295C62.1113 49.2718 63.2133 48.9929 64.4413 48.9929C65.6603 48.9929 66.7578 49.2718 67.7339 49.8295C68.7145 50.3828 69.4882 51.188 70.055 52.245C70.6262 53.3021 70.9118 54.584 70.9118 56.0909ZM67.9498 56.0909C67.9498 55.1148 67.8037 54.2917 67.5113 53.6214C67.2234 52.9512 66.8163 52.4429 66.29 52.0966C65.7638 51.7502 65.1475 51.5771 64.4413 51.5771C63.7351 51.5771 63.1189 51.7502 62.5926 52.0966C62.0663 52.4429 61.657 52.9512 61.3646 53.6214C61.0767 54.2917 60.9328 55.1148 60.9328 56.0909C60.9328 57.067 61.0767 57.8902 61.3646 58.5604C61.657 59.2306 62.0663 59.7389 62.5926 60.0852C63.1189 60.4316 63.7351 60.6048 64.4413 60.6048C65.1475 60.6048 65.7638 60.4316 66.29 60.0852C66.8163 59.7389 67.2234 59.2306 67.5113 58.5604C67.8037 57.8902 67.9498 57.067 67.9498 56.0909ZM84.6339 49.1818V63H82.1104L76.0987 54.3029H75.9975V63H73.076V49.1818H75.6399L81.6044 57.8722H81.7259V49.1818H84.6339ZM89.4294 63H86.2987L91.069 49.1818H94.8339L99.5974 63H96.4667L93.0054 52.3395H92.8975L89.4294 63ZM89.2338 57.5685H96.6286V59.8491H89.2338V57.5685ZM101.261 63V49.1818H104.182V60.5913H110.106V63H101.261ZM129.136 56.0909C129.136 57.5978 128.851 58.8797 128.28 59.9368C127.713 60.9938 126.939 61.8013 125.959 62.359C124.982 62.9123 123.885 63.1889 122.666 63.1889C121.438 63.1889 120.336 62.91 119.36 62.3523C118.384 61.7945 117.612 60.9871 117.046 59.93C116.479 58.873 116.195 57.5933 116.195 56.0909C116.195 54.584 116.479 53.3021 117.046 52.245C117.612 51.188 118.384 50.3828 119.36 49.8295C120.336 49.2718 121.438 48.9929 122.666 48.9929C123.885 48.9929 124.982 49.2718 125.959 49.8295C126.939 50.3828 127.713 51.188 128.28 52.245C128.851 53.3021 129.136 54.584 129.136 56.0909ZM126.174 56.0909C126.174 55.1148 126.028 54.2917 125.736 53.6214C125.448 52.9512 125.041 52.4429 124.515 52.0966C123.988 51.7502 123.372 51.5771 122.666 51.5771C121.96 51.5771 121.343 51.7502 120.817 52.0966C120.291 52.4429 119.882 52.9512 119.589 53.6214C119.301 54.2917 119.157 55.1148 119.157 56.0909C119.157 57.067 119.301 57.8902 119.589 58.5604C119.882 59.2306 120.291 59.7389 120.817 60.0852C121.343 60.4316 121.96 60.6048 122.666 60.6048C123.372 60.6048 123.988 60.4316 124.515 60.0852C125.041 59.7389 125.448 59.2306 125.736 58.5604C126.028 57.8902 126.174 57.067 126.174 56.0909ZM134.222 49.1818V63H131.301V49.1818H134.222ZM136.626 63V49.1818H139.547V60.5913H145.471V63H136.626ZM163.996 54.0195H161.04C160.986 53.6372 160.876 53.2976 160.71 53.0007C160.543 52.6993 160.33 52.4429 160.069 52.2315C159.808 52.0201 159.507 51.8582 159.165 51.7457C158.827 51.6333 158.461 51.5771 158.065 51.5771C157.35 51.5771 156.727 51.7547 156.196 52.1101C155.665 52.4609 155.254 52.9737 154.961 53.6484C154.669 54.3187 154.523 55.1328 154.523 56.0909C154.523 57.076 154.669 57.9036 154.961 58.5739C155.258 59.2441 155.672 59.7501 156.203 60.092C156.733 60.4338 157.347 60.6048 158.045 60.6048C158.436 60.6048 158.798 60.553 159.131 60.4496C159.468 60.3461 159.767 60.1954 160.028 59.9975C160.289 59.7951 160.505 59.55 160.676 59.2621C160.851 58.9742 160.973 58.6458 161.04 58.277L163.996 58.2905C163.919 58.9247 163.728 59.5365 163.422 60.1257C163.121 60.7105 162.714 61.2345 162.201 61.6978C161.693 62.1566 161.085 62.521 160.379 62.7908C159.677 63.0562 158.884 63.1889 157.997 63.1889C156.765 63.1889 155.663 62.91 154.691 62.3523C153.724 61.7945 152.96 60.9871 152.397 59.93C151.84 58.873 151.561 57.5933 151.561 56.0909C151.561 54.584 151.844 53.3021 152.411 52.245C152.978 51.188 153.747 50.3828 154.718 49.8295C155.69 49.2718 156.783 48.9929 157.997 48.9929C158.798 48.9929 159.54 49.1053 160.224 49.3303C160.912 49.5552 161.522 49.8835 162.052 50.3153C162.583 50.7427 163.015 51.2667 163.348 51.8874C163.685 52.5082 163.901 53.2189 163.996 54.0195ZM166.091 63V49.1818H169.012V54.8832H174.943V49.1818H177.858V63H174.943V57.2919H169.012V63H166.091ZM182.648 63H179.517L184.288 49.1818H188.053L192.816 63H189.685L186.224 52.3395H186.116L182.648 63ZM182.453 57.5685H189.847V59.8491H182.453V57.5685ZM206.037 49.1818V63H203.514L197.502 54.3029H197.401V63H194.479V49.1818H197.043L203.008 57.8722H203.129V49.1818H206.037ZM217.614 53.6484C217.519 53.3201 217.386 53.0299 217.216 52.7781C217.045 52.5217 216.835 52.3058 216.588 52.1303C216.345 51.9504 216.066 51.8132 215.751 51.7188C215.441 51.6243 215.097 51.5771 214.719 51.5771C214.013 51.5771 213.392 51.7525 212.857 52.1033C212.326 52.4542 211.912 52.9647 211.615 53.6349C211.319 54.3007 211.17 55.1148 211.17 56.0774C211.17 57.04 211.316 57.8587 211.609 58.5334C211.901 59.2081 212.315 59.7231 212.85 60.0785C213.385 60.4293 214.017 60.6048 214.746 60.6048C215.407 60.6048 215.972 60.4878 216.44 60.2539C216.912 60.0155 217.272 59.6804 217.519 59.2486C217.771 58.8168 217.897 58.3062 217.897 57.717L218.491 57.8047H214.928V55.6051H220.711V57.3459C220.711 58.5604 220.454 59.6039 219.941 60.4766C219.429 61.3447 218.722 62.0149 217.823 62.4872C216.923 62.955 215.893 63.1889 214.733 63.1889C213.437 63.1889 212.299 62.9033 211.319 62.332C210.338 61.7563 209.573 60.9399 209.025 59.8828C208.48 58.8213 208.208 57.5618 208.208 56.1044C208.208 54.9844 208.37 53.9858 208.694 53.1087C209.022 52.227 209.481 51.4804 210.07 50.8686C210.66 50.2569 211.346 49.7913 212.128 49.4719C212.911 49.1526 213.759 48.9929 214.672 48.9929C215.455 48.9929 216.183 49.1076 216.858 49.337C217.533 49.5619 218.131 49.8813 218.653 50.2951C219.179 50.7089 219.609 51.2015 219.941 51.7727C220.274 52.3395 220.488 52.9647 220.582 53.6484H217.614ZM225.827 49.1818V63H222.905V49.1818H225.827ZM239.788 49.1818V63H237.265L231.253 54.3029H231.152V63H228.23V49.1818H230.794L236.759 57.8722H236.88V49.1818H239.788ZM251.365 53.6484C251.27 53.3201 251.137 53.0299 250.967 52.7781C250.796 52.5217 250.586 52.3058 250.339 52.1303C250.096 51.9504 249.817 51.8132 249.502 51.7188C249.192 51.6243 248.848 51.5771 248.47 51.5771C247.764 51.5771 247.143 51.7525 246.608 52.1033C246.077 52.4542 245.663 52.9647 245.366 53.6349C245.07 54.3007 244.921 55.1148 244.921 56.0774C244.921 57.04 245.067 57.8587 245.36 58.5334C245.652 59.2081 246.066 59.7231 246.601 60.0785C247.136 60.4293 247.768 60.6048 248.497 60.6048C249.158 60.6048 249.723 60.4878 250.191 60.2539C250.663 60.0155 251.023 59.6804 251.27 59.2486C251.522 58.8168 251.648 58.3062 251.648 57.717L252.242 57.8047H248.679V55.6051H254.462V57.3459C254.462 58.5604 254.205 59.6039 253.692 60.4766C253.18 61.3447 252.473 62.0149 251.574 62.4872C250.674 62.955 249.644 63.1889 248.484 63.1889C247.188 63.1889 246.05 62.9033 245.07 62.332C244.089 61.7563 243.324 60.9399 242.775 59.8828C242.231 58.8213 241.959 57.5618 241.959 56.1044C241.959 54.9844 242.121 53.9858 242.445 53.1087C242.773 52.227 243.232 51.4804 243.821 50.8686C244.411 50.2569 245.097 49.7913 245.879 49.4719C246.662 49.1526 247.51 48.9929 248.423 48.9929C249.206 48.9929 249.934 49.1076 250.609 49.337C251.284 49.5619 251.882 49.8813 252.404 50.2951C252.93 50.7089 253.36 51.2015 253.692 51.7727C254.025 52.3395 254.239 52.9647 254.333 53.6484H251.365ZM261.054 63V49.1818H266.586C267.603 49.1818 268.451 49.3325 269.13 49.6339C269.809 49.9353 270.32 50.3536 270.661 50.8888C271.003 51.4196 271.174 52.0314 271.174 52.7241C271.174 53.2638 271.066 53.7384 270.85 54.1477C270.634 54.5526 270.338 54.8854 269.96 55.1463C269.586 55.4027 269.159 55.5849 268.678 55.6928V55.8278C269.204 55.8503 269.697 55.9987 270.155 56.2731C270.619 56.5475 270.994 56.9321 271.282 57.4268C271.57 57.9171 271.714 58.5019 271.714 59.1811C271.714 59.9143 271.532 60.5688 271.168 61.1445C270.808 61.7158 270.275 62.1679 269.568 62.5007C268.862 62.8336 267.992 63 266.957 63H261.054ZM263.975 60.6115H266.357C267.171 60.6115 267.765 60.4563 268.138 60.146C268.511 59.8311 268.698 59.4128 268.698 58.891C268.698 58.5086 268.606 58.1713 268.421 57.8789C268.237 57.5865 267.974 57.3571 267.632 57.1907C267.295 57.0243 266.892 56.9411 266.424 56.9411H263.975V60.6115ZM263.975 54.9641H266.141C266.541 54.9641 266.897 54.8944 267.207 54.755C267.522 54.611 267.769 54.4086 267.949 54.1477C268.134 53.8868 268.226 53.5742 268.226 53.2099C268.226 52.7106 268.048 52.308 267.693 52.0021C267.342 51.6963 266.843 51.5433 266.195 51.5433H263.975V54.9641ZM273.615 63V49.1818H279.067C280.11 49.1818 281.001 49.3685 281.739 49.7418C282.481 50.1107 283.045 50.6347 283.432 51.3139C283.824 51.9886 284.019 52.7826 284.019 53.6957C284.019 54.6133 283.821 55.4027 283.425 56.0639C283.03 56.7206 282.456 57.2244 281.705 57.5753C280.958 57.9261 280.054 58.1016 278.993 58.1016H275.342V55.7536H278.52C279.078 55.7536 279.541 55.6771 279.91 55.5241C280.279 55.3712 280.553 55.1418 280.733 54.8359C280.918 54.5301 281.01 54.15 281.01 53.6957C281.01 53.2369 280.918 52.85 280.733 52.5352C280.553 52.2203 280.277 51.9819 279.903 51.82C279.535 51.6535 279.069 51.5703 278.507 51.5703H276.537V63H273.615ZM281.077 56.7116L284.512 63H281.287L277.926 56.7116H281.077ZM288.466 63H285.335L290.105 49.1818H293.87L298.634 63H295.503L292.042 52.3395H291.934L288.466 63ZM288.27 57.5685H295.665V59.8491H288.27V57.5685ZM311.855 49.1818V63H309.331L303.319 54.3029H303.218V63H300.297V49.1818H302.861L308.825 57.8722H308.947V49.1818H311.855ZM319.167 63H314.268V49.1818H319.207C320.597 49.1818 321.794 49.4585 322.797 50.0117C323.8 50.5605 324.571 51.3499 325.111 52.38C325.655 53.41 325.927 54.6425 325.927 56.0774C325.927 57.5168 325.655 58.7538 325.111 59.7884C324.571 60.8229 323.795 61.6168 322.783 62.1701C321.776 62.7234 320.57 63 319.167 63ZM317.19 60.4968H319.045C319.909 60.4968 320.635 60.3439 321.225 60.038C321.818 59.7276 322.264 59.2486 322.561 58.6009C322.862 57.9486 323.013 57.1075 323.013 56.0774C323.013 55.0563 322.862 54.2219 322.561 53.5742C322.264 52.9265 321.821 52.4497 321.231 52.1438C320.642 51.8379 319.916 51.685 319.052 51.685H317.19V60.4968Z" fill="black"/>
</svg>
