<svg width="170" height="41" viewBox="0 0 170 41" fill="none" xmlns="http://www.w3.org/2000/svg">
<rect width="170" height="41" fill="#BCBCBC"/>
<path fill-rule="evenodd" clip-rule="evenodd" d="M92.235 24.785C92.235 25.045 92.215 25.305 92.135 25.525C91.9576 26.0448 91.6202 26.4951 91.1711 26.8113C90.7219 27.1275 90.1842 27.2933 89.635 27.285C88.615 27.285 87.805 26.705 87.805 25.465C87.805 23.585 89.875 23.065 92.235 23.075V24.785ZM95.935 21.505C95.935 18.405 94.605 15.665 90.125 15.665C87.825 15.665 85.995 16.305 84.995 16.885L85.725 19.385C86.858 18.7131 88.1478 18.3509 89.465 18.335C91.745 18.335 92.115 19.625 92.115 20.445V20.645C87.155 20.645 84.015 22.355 84.015 25.855C84.015 27.995 85.615 29.995 88.395 29.995C90.095 29.995 91.525 29.315 92.385 28.225H92.465C92.465 28.225 93.035 30.595 96.165 29.685C95.995 28.695 95.935 27.645 95.935 26.385V21.505ZM20.015 11.435L23.775 26.865C24.375 29.385 25.465 30.315 28.595 29.685L30.625 21.455C31.135 19.405 31.485 17.955 31.815 15.865H31.865C32.105 17.965 32.435 19.415 32.855 21.465L34.095 27.165C34.525 29.125 35.695 30.365 38.775 29.685L43.595 11.435H39.695L38.055 19.325C37.605 21.625 37.205 23.425 36.895 25.525H36.845C36.565 23.435 36.205 21.715 35.745 19.475L34.045 11.435H29.985L28.145 19.265C27.635 21.645 27.145 23.565 26.845 25.595H26.785C26.465 23.695 26.045 21.265 25.585 18.965L24.115 11.435H20.015ZM50.725 24.785C50.725 25.045 50.705 25.305 50.625 25.525C50.4476 26.0448 50.1102 26.4951 49.661 26.8113C49.2119 27.1275 48.6742 27.2933 48.125 27.285C47.105 27.285 46.295 26.705 46.295 25.465C46.295 23.585 48.365 23.065 50.725 23.075V24.785ZM54.425 21.505C54.425 18.405 53.105 15.665 48.625 15.665C46.325 15.665 44.485 16.305 43.485 16.885L44.215 19.385C45.3482 18.7135 46.6379 18.3514 47.955 18.335C50.235 18.335 50.605 19.625 50.605 20.445V20.645C45.645 20.645 42.505 22.355 42.505 25.855C42.505 27.995 44.105 29.995 46.885 29.995C48.585 29.995 50.015 29.315 50.875 28.225H50.955C50.955 28.225 51.525 30.595 54.655 29.685C54.485 28.695 54.425 27.645 54.425 26.385V21.505ZM60.155 25.805V11.445H56.455V29.695H60.155V25.815M107.315 11.445V24.905C107.315 26.765 107.665 28.065 108.415 28.855C109.065 29.555 110.135 30.005 111.425 30.005C112.525 30.005 113.595 29.805 114.105 29.605L114.065 26.705C113.685 26.805 113.245 26.875 112.655 26.875C111.395 26.875 110.965 26.075 110.965 24.405V19.255H114.195V15.755H110.965V11.435H107.315M97.745 15.975V29.685H101.565V22.665C101.565 22.285 101.595 21.965 101.655 21.655C101.935 20.185 103.055 19.245 104.675 19.245C105.115 19.245 105.435 19.285 105.775 19.345V15.745C105.499 15.6862 105.217 15.6594 104.935 15.665C103.505 15.665 101.885 16.585 101.205 18.565H101.105V15.965H97.745M62.315 15.965V29.685H66.015V21.645C66.015 21.265 66.065 20.865 66.195 20.525C66.495 19.715 67.255 18.765 68.455 18.765C69.955 18.765 70.665 20.035 70.665 21.865V29.685H74.385V21.545C74.385 21.185 74.435 20.745 74.545 20.435C74.691 19.9519 74.9887 19.5287 75.3939 19.228C75.7991 18.9272 76.2904 18.7649 76.795 18.765C78.315 18.765 79.045 20.015 79.045 22.165V29.685H82.775V21.605C82.775 17.355 80.605 15.665 78.175 15.665C77.085 15.665 76.235 15.935 75.465 16.405C74.815 16.805 74.225 17.375 73.725 18.115H73.665C73.3663 17.3675 72.8436 16.7307 72.1686 16.292C71.4936 15.8534 70.6994 15.6344 69.895 15.665C69.0922 15.6175 68.2922 15.7956 67.5853 16.1791C66.8784 16.5625 66.2929 17.1361 65.895 17.835H65.845V15.975H62.305" fill="white"/>
<path fill-rule="evenodd" clip-rule="evenodd" d="M134.215 15.365C134.955 15.365 135.555 14.975 135.645 14.485L136.365 6.24501C136.365 5.43501 135.415 4.76501 134.215 4.76501C133.015 4.76501 132.065 5.43501 132.065 6.24501L132.795 14.485C132.875 14.985 133.485 15.355 134.215 15.355M129.765 17.935C130.135 17.295 130.105 16.575 129.715 16.255L122.945 11.515C122.245 11.105 121.195 11.595 120.595 12.635C119.995 13.675 120.095 14.835 120.795 15.235L128.295 18.725C128.765 18.895 129.395 18.565 129.765 17.925M138.665 17.925C139.035 18.565 139.665 18.895 140.145 18.725L147.635 15.235C148.335 14.835 148.435 13.675 147.845 12.635C147.245 11.595 146.185 11.105 145.485 11.515L138.715 16.255C138.335 16.575 138.305 17.295 138.675 17.935M134.215 25.635C134.955 25.635 135.555 26.025 135.645 26.515L136.365 34.755C136.365 35.565 135.415 36.235 134.215 36.235C133.015 36.235 132.065 35.565 132.065 34.755L132.795 26.515C132.875 26.015 133.485 25.645 134.215 25.645M138.665 23.075C139.035 22.435 139.665 22.105 140.145 22.275L147.635 25.765C148.335 26.165 148.435 27.335 147.845 28.365C147.245 29.405 146.185 29.895 145.485 29.485L138.715 24.745C138.335 24.425 138.305 23.705 138.675 23.075M129.765 23.075C130.135 23.705 130.105 24.425 129.715 24.745L122.945 29.485C122.245 29.885 121.195 29.405 120.595 28.365C119.995 27.325 120.095 26.165 120.795 25.765L128.295 22.275C128.765 22.105 129.395 22.435 129.765 23.075ZM149.215 28.765H149.285C149.365 28.765 149.435 28.735 149.435 28.665C149.435 28.605 149.395 28.565 149.295 28.565H149.215V28.765ZM149.215 29.125H149.055V28.475L149.305 28.455C149.435 28.455 149.485 28.475 149.535 28.505C149.575 28.535 149.605 28.585 149.605 28.645C149.605 28.725 149.545 28.775 149.465 28.805C149.525 28.825 149.565 28.885 149.585 28.965C149.605 29.065 149.615 29.105 149.635 29.125H149.475C149.455 29.105 149.435 29.045 149.415 28.975C149.405 28.905 149.365 28.875 149.285 28.875H149.205V29.135L149.215 29.125ZM149.315 28.265C149.015 28.265 148.805 28.505 148.805 28.795C148.805 29.085 149.025 29.315 149.315 29.315C149.605 29.315 149.815 29.085 149.815 28.795C149.819 28.7269 149.809 28.6586 149.786 28.5944C149.763 28.5303 149.726 28.4716 149.68 28.4219C149.633 28.3722 149.576 28.3327 149.514 28.3057C149.451 28.2787 149.383 28.2649 149.315 28.265ZM149.315 28.135C149.695 28.135 149.985 28.425 149.985 28.795C149.985 29.165 149.685 29.455 149.315 29.455C149.227 29.4577 149.139 29.4426 149.056 29.4106C148.974 29.3787 148.899 29.3305 148.835 29.2689C148.772 29.2074 148.722 29.1337 148.687 29.0523C148.653 28.9709 148.635 28.8834 148.635 28.795C148.635 28.425 148.935 28.135 149.315 28.135Z" fill="#F3B53B"/>
</svg>
