<svg width="173" height="45" viewBox="0 0 173 45" fill="none" xmlns="http://www.w3.org/2000/svg">
<path d="M20.75 26.6208C21.1961 27.0173 22.2483 25.9538 22.6528 25.7458C22.8792 25.6293 23.1406 25.4605 23.375 25.3847C23.4876 25.3482 23.6011 25.2458 23.7188 25.2458C23.7847 25.2458 23.8768 25.2622 23.9375 25.2319C24.2136 25.0938 24.4556 24.892 24.7431 24.7627M24.7431 24.7627C24.7454 24.7617 24.7477 24.7607 24.75 24.7597C25.0409 24.6304 25.2787 24.3548 25.5625 24.1972C25.8843 24.0184 26.1679 23.8484 26.3889 23.5722C26.4057 23.5511 26.4167 23.5346 26.4239 23.5184M24.7431 24.7627C24.5263 25.0252 24.3111 25.2963 24.0486 25.4958C23.7264 25.7406 23.59 26.119 23.3889 26.4541C23.2226 26.7312 23.022 26.9969 22.8561 27.2806M24.7431 24.7627C24.8561 24.6259 24.9695 24.4915 25.0903 24.3708C25.3236 24.1374 25.5778 23.7017 25.875 23.5444C26.0195 23.4679 26.1367 23.4192 26.2847 23.3569C26.3049 23.3484 26.3536 23.3272 26.4071 23.3041M26.4239 23.5184C26.4369 23.4892 26.4375 23.4609 26.4375 23.409C26.4375 23.3727 26.4429 23.3662 26.4519 23.3801M26.4239 23.5184C26.4142 23.445 26.4079 23.3724 26.4071 23.3041M26.4239 23.5184C26.4279 23.5488 26.4325 23.5794 26.4375 23.6098M26.4519 23.3801C26.4853 23.4318 26.5685 23.7638 26.6111 23.8916C26.7042 24.1707 26.75 24.3911 26.75 24.6833C26.75 24.8528 26.7752 25.045 26.7361 25.2111C26.7247 25.2594 26.7012 25.4105 26.6704 25.5275M26.4519 23.3801C26.4432 23.4246 26.4375 23.4647 26.4375 23.4958V23.6098M26.4519 23.3801C26.4584 23.3468 26.4667 23.311 26.4756 23.2747M26.6704 25.5275C26.6527 25.5946 26.6326 25.6506 26.6111 25.6694C26.56 25.7141 26.5625 25.4451 26.5625 25.4263C26.5625 25.2869 26.5032 25.1774 26.5 25.0444C26.4926 24.7332 26.4375 24.4345 26.4375 24.1208V23.6098M26.6704 25.5275C26.6409 25.3523 26.6158 25.1823 26.6389 25.0374C26.6871 24.7347 26.6072 24.454 26.5486 24.1416C26.5275 24.029 26.4724 23.8225 26.4375 23.6098M26.6704 25.5275C26.7162 25.8003 26.7725 26.0857 26.6736 26.3083C26.529 26.6337 26.6569 27.0674 26.5486 27.4194C26.4795 27.6441 26.3378 27.7553 26.1389 27.8708C25.7286 28.109 25.3476 28.2906 24.9722 28.5722C24.4245 28.9829 23.7967 29.3121 23.1875 29.6347C22.8991 29.7873 22.607 29.9485 22.3333 30.1208C22.0075 30.3259 21.5861 30.4106 21.2986 30.6694C21.2734 30.692 21.2249 30.7296 21.1749 30.767M26.4756 23.2747C26.5232 23.0801 26.5885 22.8726 26.5 22.9611C26.4291 23.032 26.4054 23.1581 26.4071 23.3041M26.4756 23.2747C26.4531 23.2843 26.4297 23.2944 26.4071 23.3041M26.4756 23.2747C26.5751 23.2322 26.656 23.199 26.5625 23.2458M21.1749 30.767C21.1262 30.8035 21.0762 30.84 21.0451 30.8624M21.1749 30.767C20.9256 31.2236 20.802 31.41 20.9861 30.9958C21.0054 30.9525 21.0251 30.9079 21.0451 30.8624M21.1749 30.767C21.4476 30.2678 21.8706 29.4456 22.2062 28.7322M21.0451 30.8624C21.0256 30.8764 21.0139 30.8847 21.0139 30.8847C21.0281 30.8721 21.0409 30.8589 21.0526 30.8452M21.0451 30.8624C21.0476 30.8567 21.0501 30.851 21.0526 30.8452M21.0526 30.8452C21.0999 30.7895 21.1263 30.7251 21.1341 30.6541M21.0526 30.8452C21.0797 30.7831 21.1072 30.7191 21.1341 30.6541M21.1341 30.6541C21.1411 30.59 21.1328 30.5205 21.1111 30.4472C21 30.0723 20.9212 29.7829 20.7639 29.4333C20.6633 29.2097 20.625 28.9129 20.625 28.6694C20.625 28.233 21.0559 28.1137 21.375 27.8847C21.6457 27.6903 21.975 27.6258 22.2847 27.5097C22.4775 27.4374 22.6675 27.3594 22.8561 27.2806M21.1341 30.6541C21.2263 30.4316 21.3125 30.1963 21.3611 29.9749C21.4064 29.7688 21.4657 29.5676 21.5486 29.3708C21.6433 29.1458 21.8851 29.0204 22.0625 28.843C22.1033 28.8022 22.152 28.7655 22.2062 28.7322M22.8561 27.2806C23.0765 27.1886 23.295 27.0957 23.5139 27.0097C23.9602 26.8343 24.426 26.5384 24.9236 26.5583C25.1611 26.5678 25.1082 27.0843 25.0486 27.2249C24.8806 27.6214 24.6665 27.8761 24.2708 28.0097C23.8622 28.1476 23.4969 28.3577 23.0764 28.4472C22.8219 28.5013 22.4555 28.5795 22.2062 28.7322M22.8561 27.2806C22.7717 27.425 22.6962 27.5742 22.6389 27.7319C22.5464 27.9861 22.3893 28.343 22.2062 28.7322M25.3125 26.6833C25.3125 26.3998 25.2402 26.1039 25.2056 25.8071M25.2056 25.8071C25.1947 25.7137 25.1875 25.6202 25.1875 25.527C25.1875 24.6442 25.047 25.4955 25.2056 25.8071ZM25.2056 25.8071C25.2183 25.8322 25.2331 25.8539 25.25 25.8708M13 23.2458C13.1634 23.2458 13.4279 23.7517 13.4375 23.9333C13.4539 24.2451 13.375 24.527 13.375 24.843C13.375 25.1553 13.3125 25.4677 13.3125 25.7944C13.3125 26.1384 13.375 26.4603 13.375 26.8083C13.375 27.1546 13.3562 27.4699 13.375 27.8083C13.4034 28.3202 13.7723 27.9766 13.875 27.6555C14.055 27.093 14.125 26.5324 14.125 25.9472C14.125 25.526 14.2371 25.1691 14.309 24.7736C14.3559 24.516 14.2941 23.8948 14.5 24.4611C14.6127 24.7709 14.6554 25.104 14.6111 25.4333C14.5929 25.5687 14.5847 25.8357 14.6562 25.9645C14.7507 26.1345 14.8125 26.6937 14.8125 26.9055C14.8125 27.2906 14.861 27.7078 14.875 28.0722C14.8868 28.3802 14.8114 28.6724 15.125 28.8569C15.4438 29.0444 15.6059 28.0713 15.625 27.8708C15.6701 27.3973 15.875 26.905 15.875 26.4333C15.875 26.0863 15.8636 25.7669 15.816 25.4333C15.7805 25.1847 15.7489 24.8574 15.5312 24.6833C15.3509 24.539 16.0059 24.7628 16.1875 24.9055C16.6228 25.2475 16.3922 25.9224 16.5312 26.3673C16.6112 26.6232 16.5625 26.947 16.5625 27.2145C16.5625 27.9109 16.4375 28.5956 16.4375 29.277C16.4375 30.1203 17.4549 30.0514 17.9236 30.5722C18.0278 30.6879 18.1446 30.8694 18.2778 30.9541C18.4133 31.0403 18.375 30.5612 18.375 30.4958V29.6208C18.375 29.3045 18.2716 28.789 18.3889 28.4958C18.5353 28.1299 18.375 27.7097 18.375 27.3395C18.375 26.8678 18.1608 26.323 17.6597 26.1798C17.5933 26.1608 17.4341 25.9653 17.3611 26.0444C17.1661 26.2557 16.8722 26.9215 16.9688 27.2111C17.0394 27.4229 16.9625 28.1333 17.1875 28.2458M17.4375 19.3083C17.2851 19.3083 17.1624 19.3811 17.0139 19.4194C16.7354 19.4913 16.4856 19.4078 16.2222 19.5583C15.9914 19.6902 15.8777 19.8707 15.5972 19.9472C15.412 19.9977 14.9977 20.1237 14.875 20.277C14.755 20.427 14.4162 20.2999 14.8125 20.5097C15.2836 20.759 15.8392 21.1197 16.2014 21.4819C16.4172 21.6977 16.7866 21.7777 17.0312 21.968C17.2969 22.1746 17.6397 22.2904 17.9375 22.4472C18.2454 22.6092 18.4758 22.86 18.7812 22.9958C18.898 23.0477 18.9705 23.1525 19.0903 23.1867C19.2288 23.2263 19.3926 23.2528 19.5417 23.3083C20.0357 23.4921 20.3997 23.1852 20.875 23.1173C21.1417 23.0792 21.4414 22.8124 21.6389 22.6347C21.8555 22.4397 22.229 22.1238 22.5 22.027C22.7591 21.9345 23.1737 21.749 23.375 21.5583C23.6367 21.3104 23.8905 21.2573 24.184 21.0861C24.433 20.9408 24.6873 20.7682 24.9722 20.6867C25.1023 20.6496 24.801 20.5727 24.7187 20.527C24.5328 20.4237 24.373 20.284 24.1875 20.1833C23.8933 20.0236 23.6499 19.8521 23.3472 19.7145C23.165 19.6317 22.9704 19.5661 22.7882 19.468C22.5882 19.3603 22.5042 19.1827 22.3403 19.0236C22.1282 18.8177 21.8534 18.6422 21.5972 18.4958C21.2572 18.3015 20.9267 18.1015 20.5625 17.9194C20.1275 17.7019 19.856 17.7658 19.4128 17.8701L19.4097 17.8708C18.9099 17.9884 18.3377 18.496 18.0937 18.9298C17.9623 19.1635 17.5856 19.5422 17.3125 19.5583C16.8811 19.5836 17.0555 19.8152 17.2847 19.9611C17.394 20.0306 17.572 20.05 17.6944 20.0548C18.2105 20.075 18.724 20.0839 19.2396 20.1208C19.4997 20.1394 19.8648 20.2001 20.0764 20.0097C20.4997 19.6287 20.9178 20.1329 21.1528 20.4923C21.4021 20.8737 21.1044 21.1833 20.6736 21.1833C20.16 21.1833 19.6317 21.1165 19.1597 20.902C18.8888 20.7789 18.3727 20.6749 18.4514 21.1208C18.5275 21.5521 18.6918 21.7061 19.0972 21.6208C19.3353 21.5706 20.154 21.6252 20.25 21.4333M22.625 20.7458C22.5901 20.4663 22.2192 20.269 21.9722 20.2492C21.5728 20.2173 21.167 19.8667 20.9375 19.5097C20.7292 19.1857 20.6421 18.8966 20.1944 18.8152C19.8966 18.7611 19.5308 18.8708 19.2257 18.8708C19.1756 18.8708 18.7031 18.8786 18.9375 18.9958" stroke="white" stroke-width="2" stroke-linecap="round"/>
<path d="M20.25 8.37639L33.8385 16.2217C33.9932 16.311 34.0885 16.4761 34.0885 16.6547V32.3453C34.0885 32.5239 33.9932 32.689 33.8385 32.7783L20.25 40.6236C20.0953 40.7129 19.9047 40.7129 19.75 40.6236L6.16154 32.7783C6.00684 32.689 5.91154 32.5239 5.91154 32.3453V16.6547C5.91154 16.4761 6.00684 16.311 6.16154 16.2217L19.75 8.37639C19.9047 8.28707 20.0953 8.28707 20.25 8.37639Z" stroke="#3067FF" stroke-width="3"/>
<circle cx="20" cy="8.5" r="3" fill="white" stroke="#3067FF" stroke-width="3"/>
<circle cx="34.5" cy="17.5" r="3" fill="white" stroke="#3067FF" stroke-width="3"/>
<circle cx="5.5" cy="17.5" r="3" fill="white" stroke="#3067FF" stroke-width="3"/>
<circle cx="5.5" cy="32.5" r="3" fill="white" stroke="#3067FF" stroke-width="3"/>
<circle cx="34.5" cy="32.5" r="3" fill="white" stroke="#3067FF" stroke-width="3"/>
<circle cx="20" cy="40.5" r="3" fill="white" stroke="#3067FF" stroke-width="3"/>
<path d="M12 21L12 29" stroke="#3067FF" stroke-width="3" stroke-linecap="round"/>
<path d="M20 25.6L20 33.6" stroke="#3067FF" stroke-width="3"/>
<path d="M28 21L28 29" stroke="#3067FF" stroke-width="3" stroke-linecap="round"/>
<path d="M12 29.1L20.0021 33.72" stroke="#3067FF" stroke-width="3" stroke-linecap="round"/>
<path d="M12 21L20.0021 25.62" stroke="#3067FF" stroke-width="3" stroke-linecap="round"/>
<path d="M20.004 16.13L27.998 20.764" stroke="#3067FF" stroke-width="3" stroke-linecap="round"/>
<path d="M20 25.62L28.0021 21" stroke="#3067FF" stroke-width="3" stroke-linecap="round"/>
<path d="M12 20.75L20.0021 16.13" stroke="#3067FF" stroke-width="3" stroke-linecap="round"/>
<path d="M28.7521 30.409C29.4695 29.9948 29.7153 29.0774 29.3011 28.36C28.8869 27.6426 27.9695 27.3967 27.2521 27.811L28.7521 30.409ZM20.75 35.029L28.7521 30.409L27.2521 27.811L19.25 32.431L20.75 35.029Z" fill="#3067FF"/>
<path d="M49.52 21V5.4H60.16V8.04H52.84V11.48H58.48V13.92H52.84V18.36H60.28V21H49.52ZM66.4153 21V8.04H61.7953V5.4H74.3953V8.04H69.7753V21H66.4153ZM73.1678 21V20.88L77.8678 5.4H83.1278L87.8478 20.88V21H84.4078L80.6278 8H80.1478L76.3278 21H73.1678ZM77.0678 17.1L77.7678 14.58H83.0078L83.7078 17.1H77.0678ZM89.5278 21V5.4H95.6478C97.5945 5.4 99.0011 5.75333 99.8678 6.46C100.734 7.16667 101.168 8.12 101.168 9.32C101.168 10.0933 100.981 10.72 100.608 11.2C100.234 11.68 99.6678 12.0333 98.9078 12.26V12.74C99.9211 12.9667 100.688 13.3667 101.208 13.94C101.741 14.5133 102.008 15.3467 102.008 16.44C102.008 17.8133 101.554 18.92 100.648 19.76C99.7545 20.5867 98.2745 21 96.2078 21H89.5278ZM92.7278 18.6H95.7678C96.7811 18.6 97.5145 18.4 97.9678 18C98.4211 17.5867 98.6478 17.0267 98.6478 16.32C98.6478 15.5333 98.3945 14.96 97.8878 14.6C97.3811 14.2267 96.6745 14.04 95.7678 14.04H92.7278V18.6ZM92.7278 11.68H95.4078C96.1678 11.68 96.7678 11.5267 97.2078 11.22C97.6611 10.9 97.8878 10.4067 97.8878 9.74C97.8878 8.44667 97.0611 7.8 95.4078 7.8H92.7278V11.68ZM104.129 21V5.4H107.489V18.36H114.009V21H104.129ZM116.129 21V5.4H119.489V21H116.129ZM122.528 21V5.4H129.148C130.481 5.4 131.561 5.59333 132.388 5.98C133.228 6.35333 133.841 6.87333 134.228 7.54C134.628 8.19333 134.828 8.95333 134.828 9.82C134.828 10.8067 134.568 11.66 134.048 12.38C133.528 13.1 132.761 13.6133 131.748 13.92L135.248 20.88V21H131.688L128.508 14.4H125.848V21H122.528ZM125.848 11.96H128.668C129.534 11.96 130.208 11.8133 130.688 11.52C131.181 11.2267 131.428 10.7 131.428 9.94C131.428 9.16667 131.181 8.64 130.688 8.36C130.194 8.06667 129.521 7.92 128.668 7.92H125.848V11.96ZM55.26 43.3C54.0467 43.3 53.02 43.14 52.18 42.82C51.3533 42.4867 50.68 42.0533 50.16 41.52C49.6533 40.9867 49.2733 40.4067 49.02 39.78C48.78 39.14 48.64 38.5133 48.6 37.9H51.72C51.7467 38.38 51.8933 38.84 52.16 39.28C52.4267 39.72 52.8267 40.08 53.36 40.36C53.8933 40.64 54.56 40.78 55.36 40.78C56.2267 40.78 56.8667 40.6067 57.28 40.26C57.7067 39.9 57.92 39.4333 57.92 38.86C57.92 38.3133 57.7333 37.8667 57.36 37.52C57 37.1733 56.52 36.9 55.92 36.7L53.66 35.94C52.94 35.7 52.2467 35.4067 51.58 35.06C50.9267 34.7 50.3867 34.2333 49.96 33.66C49.5333 33.0733 49.32 32.3267 49.32 31.42C49.32 30.4867 49.5533 29.7 50.02 29.06C50.5 28.42 51.1533 27.9333 51.98 27.6C52.82 27.2667 53.78 27.1 54.86 27.1C56.2467 27.1 57.34 27.3333 58.14 27.8C58.94 28.2667 59.52 28.86 59.88 29.58C60.2533 30.2867 60.48 31.0267 60.56 31.8H57.44C57.4133 31.4267 57.3067 31.0733 57.12 30.74C56.9467 30.3933 56.6667 30.1133 56.28 29.9C55.8933 29.6867 55.3733 29.58 54.72 29.58C53.9867 29.58 53.44 29.7333 53.08 30.04C52.7333 30.3467 52.56 30.7333 52.56 31.2C52.56 31.7067 52.74 32.1133 53.1 32.42C53.4733 32.7267 53.9667 32.9867 54.58 33.2L56.84 33.96C57.5733 34.2 58.2667 34.5 58.92 34.86C59.5733 35.22 60.1067 35.7 60.52 36.3C60.9467 36.8867 61.16 37.66 61.16 38.62C61.16 40.0733 60.64 41.22 59.6 42.06C58.5733 42.8867 57.1267 43.3 55.26 43.3ZM69.9922 43.28C68.3389 43.28 66.9589 42.9533 65.8522 42.3C64.7589 41.6333 63.9389 40.6933 63.3922 39.48C62.8589 38.2667 62.5922 36.84 62.5922 35.2C62.5922 33.5467 62.8589 32.12 63.3922 30.92C63.9389 29.7067 64.7589 28.7733 65.8522 28.12C66.9589 27.4533 68.3389 27.12 69.9922 27.12C71.6589 27.12 73.0389 27.4533 74.1322 28.12C75.2255 28.7733 76.0389 29.7067 76.5722 30.92C77.1189 32.12 77.3922 33.5467 77.3922 35.2C77.3922 36.84 77.1189 38.2667 76.5722 39.48C76.0389 40.6933 75.2255 41.6333 74.1322 42.3C73.0389 42.9533 71.6589 43.28 69.9922 43.28ZM69.9922 40.76C71.3389 40.76 72.3255 40.28 72.9522 39.32C73.5922 38.3467 73.9122 36.9733 73.9122 35.2C73.9122 33.4133 73.5922 32.04 72.9522 31.08C72.3255 30.12 71.3389 29.64 69.9922 29.64C68.6455 29.64 67.6522 30.12 67.0122 31.08C66.3855 32.04 66.0722 33.4133 66.0722 35.2C66.0722 36.9733 66.3855 38.3467 67.0122 39.32C67.6522 40.28 68.6455 40.76 69.9922 40.76ZM79.52 43V27.4H82.88V40.36H89.4V43H79.52ZM96.8047 43.3C94.5514 43.3 92.8714 42.72 91.7647 41.56C90.6714 40.3867 90.1247 38.7133 90.1247 36.54V27.4H93.5247V36.44C93.5247 37.72 93.7647 38.72 94.2447 39.44C94.738 40.16 95.6047 40.52 96.8447 40.52C98.098 40.52 98.9647 40.16 99.4447 39.44C99.9247 38.72 100.165 37.72 100.165 36.44V27.4H103.485V36.54C103.485 38.7133 102.938 40.3867 101.845 41.56C100.751 42.72 99.0714 43.3 96.8047 43.3ZM110.033 43V30.04H105.413V27.4H118.013V30.04H113.393V43H110.033ZM120.137 43V27.4H123.497V43H120.137ZM133.016 43.28C131.362 43.28 129.982 42.9533 128.876 42.3C127.782 41.6333 126.962 40.6933 126.416 39.48C125.882 38.2667 125.616 36.84 125.616 35.2C125.616 33.5467 125.882 32.12 126.416 30.92C126.962 29.7067 127.782 28.7733 128.876 28.12C129.982 27.4533 131.362 27.12 133.016 27.12C134.682 27.12 136.062 27.4533 137.156 28.12C138.249 28.7733 139.062 29.7067 139.596 30.92C140.142 32.12 140.416 33.5467 140.416 35.2C140.416 36.84 140.142 38.2667 139.596 39.48C139.062 40.6933 138.249 41.6333 137.156 42.3C136.062 42.9533 134.682 43.28 133.016 43.28ZM133.016 40.76C134.362 40.76 135.349 40.28 135.976 39.32C136.616 38.3467 136.936 36.9733 136.936 35.2C136.936 33.4133 136.616 32.04 135.976 31.08C135.349 30.12 134.362 29.64 133.016 29.64C131.669 29.64 130.676 30.12 130.036 31.08C129.409 32.04 129.096 33.4133 129.096 35.2C129.096 36.9733 129.409 38.3467 130.036 39.32C130.676 40.28 131.669 40.76 133.016 40.76ZM142.543 43V27.4H148.343L153.183 40.36H153.663V27.4H156.703V43H150.863L146.043 30.04H145.583V43H142.543ZM165.487 43.3C164.273 43.3 163.247 43.14 162.407 42.82C161.58 42.4867 160.907 42.0533 160.387 41.52C159.88 40.9867 159.5 40.4067 159.247 39.78C159.007 39.14 158.867 38.5133 158.827 37.9H161.947C161.973 38.38 162.12 38.84 162.387 39.28C162.653 39.72 163.053 40.08 163.587 40.36C164.12 40.64 164.787 40.78 165.587 40.78C166.453 40.78 167.093 40.6067 167.507 40.26C167.933 39.9 168.147 39.4333 168.147 38.86C168.147 38.3133 167.96 37.8667 167.587 37.52C167.227 37.1733 166.747 36.9 166.147 36.7L163.887 35.94C163.167 35.7 162.473 35.4067 161.807 35.06C161.153 34.7 160.613 34.2333 160.187 33.66C159.76 33.0733 159.547 32.3267 159.547 31.42C159.547 30.4867 159.78 29.7 160.247 29.06C160.727 28.42 161.38 27.9333 162.207 27.6C163.047 27.2667 164.007 27.1 165.087 27.1C166.473 27.1 167.567 27.3333 168.367 27.8C169.167 28.2667 169.747 28.86 170.107 29.58C170.48 30.2867 170.707 31.0267 170.787 31.8H167.667C167.64 31.4267 167.533 31.0733 167.347 30.74C167.173 30.3933 166.893 30.1133 166.507 29.9C166.12 29.6867 165.6 29.58 164.947 29.58C164.213 29.58 163.667 29.7333 163.307 30.04C162.96 30.3467 162.787 30.7333 162.787 31.2C162.787 31.7067 162.967 32.1133 163.327 32.42C163.7 32.7267 164.193 32.9867 164.807 33.2L167.067 33.96C167.8 34.2 168.493 34.5 169.147 34.86C169.8 35.22 170.333 35.7 170.747 36.3C171.173 36.8867 171.387 37.66 171.387 38.62C171.387 40.0733 170.867 41.22 169.827 42.06C168.8 42.8867 167.353 43.3 165.487 43.3Z" fill="black"/>
</svg>
