<svg width="125" height="96" viewBox="0 0 125 96" fill="none" xmlns="http://www.w3.org/2000/svg">
<path d="M62.75 8.37639L76.3385 16.2217C76.4932 16.311 76.5885 16.4761 76.5885 16.6547V32.3453C76.5885 32.5239 76.4932 32.689 76.3385 32.7783L62.75 40.6236C62.5953 40.7129 62.4047 40.7129 62.25 40.6236L48.6615 32.7783C48.5068 32.689 48.4115 32.5239 48.4115 32.3453V16.6547C48.4115 16.4761 48.5068 16.311 48.6615 16.2217L62.25 8.37639C62.4047 8.28707 62.5953 8.28707 62.75 8.37639Z" stroke="#3067FF" stroke-width="3"/>
<circle cx="62.5" cy="8.5" r="3" fill="black" stroke="#3067FF" stroke-width="3"/>
<circle cx="77" cy="17.5" r="3" fill="black" stroke="#3067FF" stroke-width="3"/>
<circle cx="48" cy="17.5" r="3" fill="black" stroke="#3067FF" stroke-width="3"/>
<circle cx="48" cy="32.5" r="3" fill="black" stroke="#3067FF" stroke-width="3"/>
<circle cx="77" cy="32.5" r="3" fill="black" stroke="#3067FF" stroke-width="3"/>
<circle cx="62.5" cy="40.5" r="3" fill="black" stroke="#3067FF" stroke-width="3"/>
<path d="M54.5 21L54.5 29" stroke="#3067FF" stroke-width="3" stroke-linecap="round"/>
<path d="M62.5 25.6L62.5 33.6" stroke="#3067FF" stroke-width="3"/>
<path d="M70.5 21L70.5 29" stroke="#3067FF" stroke-width="3" stroke-linecap="round"/>
<path d="M54.5 29.1L62.5021 33.72" stroke="#3067FF" stroke-width="3" stroke-linecap="round"/>
<path d="M54.5 21L62.5021 25.62" stroke="#3067FF" stroke-width="3" stroke-linecap="round"/>
<path d="M62.504 16.13L70.498 20.764" stroke="#3067FF" stroke-width="3" stroke-linecap="round"/>
<path d="M62.5 25.62L70.5021 21" stroke="#3067FF" stroke-width="3" stroke-linecap="round"/>
<path d="M54.5 20.75L62.5021 16.13" stroke="#3067FF" stroke-width="3" stroke-linecap="round"/>
<path d="M71.2521 30.409C71.9695 29.9948 72.2153 29.0774 71.8011 28.36C71.3869 27.6426 70.4695 27.3967 69.7521 27.811L71.2521 30.409ZM63.25 35.029L71.2521 30.409L69.7521 27.811L61.75 32.431L63.25 35.029Z" fill="#3067FF"/>
<path d="M17.813 73V57.4H28.453V60.04H21.133V63.48H26.773V65.92H21.133V70.36H28.573V73H17.813ZM34.7083 73V60.04H30.0883V57.4H42.6883V60.04H38.0683V73H34.7083ZM41.4608 73V72.88L46.1608 57.4H51.4208L56.1408 72.88V73H52.7008L48.9208 60H48.4408L44.6208 73H41.4608ZM45.3608 69.1L46.0608 66.58H51.3008L52.0008 69.1H45.3608ZM57.8208 73V57.4H63.9408C65.8874 57.4 67.2941 57.7533 68.1608 58.46C69.0274 59.1667 69.4608 60.12 69.4608 61.32C69.4608 62.0933 69.2741 62.72 68.9008 63.2C68.5274 63.68 67.9608 64.0333 67.2008 64.26V64.74C68.2141 64.9667 68.9808 65.3667 69.5008 65.94C70.0341 66.5133 70.3008 67.3467 70.3008 68.44C70.3008 69.8133 69.8474 70.92 68.9408 71.76C68.0474 72.5867 66.5674 73 64.5008 73H57.8208ZM61.0208 70.6H64.0608C65.0741 70.6 65.8074 70.4 66.2608 70C66.7141 69.5867 66.9408 69.0267 66.9408 68.32C66.9408 67.5333 66.6874 66.96 66.1808 66.6C65.6741 66.2267 64.9674 66.04 64.0608 66.04H61.0208V70.6ZM61.0208 63.68H63.7008C64.4608 63.68 65.0608 63.5267 65.5008 63.22C65.9541 62.9 66.1808 62.4067 66.1808 61.74C66.1808 60.4467 65.3541 59.8 63.7008 59.8H61.0208V63.68ZM72.4223 73V57.4H75.7823V70.36H82.3023V73H72.4223ZM84.4223 73V57.4H87.7823V73H84.4223ZM90.8208 73V57.4H97.4408C98.7741 57.4 99.8541 57.5933 100.681 57.98C101.521 58.3533 102.134 58.8733 102.521 59.54C102.921 60.1933 103.121 60.9533 103.121 61.82C103.121 62.8067 102.861 63.66 102.341 64.38C101.821 65.1 101.054 65.6133 100.041 65.92L103.541 72.88V73H99.9808L96.8008 66.4H94.1408V73H90.8208ZM94.1408 63.96H96.9608C97.8274 63.96 98.5008 63.8133 98.9808 63.52C99.4741 63.2267 99.7208 62.7 99.7208 61.94C99.7208 61.1667 99.4741 60.64 98.9808 60.36C98.4874 60.0667 97.8141 59.92 96.9608 59.92H94.1408V63.96ZM7.65063 95.3C6.43729 95.3 5.41063 95.14 4.57062 94.82C3.74396 94.4867 3.07063 94.0533 2.55063 93.52C2.04396 92.9867 1.66396 92.4067 1.41063 91.78C1.17063 91.14 1.03063 90.5133 0.990625 89.9H4.11063C4.13729 90.38 4.28396 90.84 4.55062 91.28C4.81729 91.72 5.21729 92.08 5.75063 92.36C6.28396 92.64 6.95062 92.78 7.75063 92.78C8.61729 92.78 9.25729 92.6067 9.67063 92.26C10.0973 91.9 10.3106 91.4333 10.3106 90.86C10.3106 90.3133 10.124 89.8667 9.75063 89.52C9.39063 89.1733 8.91063 88.9 8.31063 88.7L6.05062 87.94C5.33063 87.7 4.63729 87.4067 3.97063 87.06C3.31729 86.7 2.77729 86.2333 2.35063 85.66C1.92396 85.0733 1.71062 84.3267 1.71062 83.42C1.71062 82.4867 1.94396 81.7 2.41063 81.06C2.89063 80.42 3.54396 79.9333 4.37063 79.6C5.21063 79.2667 6.17062 79.1 7.25062 79.1C8.63729 79.1 9.73063 79.3333 10.5306 79.8C11.3306 80.2667 11.9106 80.86 12.2706 81.58C12.644 82.2867 12.8706 83.0267 12.9506 83.8H9.83063C9.80396 83.4267 9.69729 83.0733 9.51062 82.74C9.33729 82.3933 9.05729 82.1133 8.67062 81.9C8.28396 81.6867 7.76396 81.58 7.11063 81.58C6.37729 81.58 5.83063 81.7333 5.47063 82.04C5.12396 82.3467 4.95062 82.7333 4.95062 83.2C4.95062 83.7067 5.13063 84.1133 5.49063 84.42C5.86396 84.7267 6.35729 84.9867 6.97063 85.2L9.23063 85.96C9.96396 86.2 10.6573 86.5 11.3106 86.86C11.964 87.22 12.4973 87.7 12.9106 88.3C13.3373 88.8867 13.5506 89.66 13.5506 90.62C13.5506 92.0733 13.0306 93.22 11.9906 94.06C10.964 94.8867 9.51729 95.3 7.65063 95.3ZM22.3828 95.28C20.7295 95.28 19.3495 94.9533 18.2428 94.3C17.1495 93.6333 16.3295 92.6933 15.7828 91.48C15.2495 90.2667 14.9828 88.84 14.9828 87.2C14.9828 85.5467 15.2495 84.12 15.7828 82.92C16.3295 81.7067 17.1495 80.7733 18.2428 80.12C19.3495 79.4533 20.7295 79.12 22.3828 79.12C24.0495 79.12 25.4295 79.4533 26.5228 80.12C27.6161 80.7733 28.4295 81.7067 28.9628 82.92C29.5095 84.12 29.7828 85.5467 29.7828 87.2C29.7828 88.84 29.5095 90.2667 28.9628 91.48C28.4295 92.6933 27.6161 93.6333 26.5228 94.3C25.4295 94.9533 24.0495 95.28 22.3828 95.28ZM22.3828 92.76C23.7295 92.76 24.7161 92.28 25.3428 91.32C25.9828 90.3467 26.3028 88.9733 26.3028 87.2C26.3028 85.4133 25.9828 84.04 25.3428 83.08C24.7161 82.12 23.7295 81.64 22.3828 81.64C21.0361 81.64 20.0428 82.12 19.4028 83.08C18.7761 84.04 18.4628 85.4133 18.4628 87.2C18.4628 88.9733 18.7761 90.3467 19.4028 91.32C20.0428 92.28 21.0361 92.76 22.3828 92.76ZM31.9106 95V79.4H35.2706V92.36H41.7906V95H31.9106ZM49.1953 95.3C46.942 95.3 45.262 94.72 44.1553 93.56C43.062 92.3867 42.5153 90.7133 42.5153 88.54V79.4H45.9153V88.44C45.9153 89.72 46.1553 90.72 46.6353 91.44C47.1286 92.16 47.9953 92.52 49.2353 92.52C50.4886 92.52 51.3553 92.16 51.8353 91.44C52.3153 90.72 52.5553 89.72 52.5553 88.44V79.4H55.8753V88.54C55.8753 90.7133 55.3286 92.3867 54.2353 93.56C53.142 94.72 51.462 95.3 49.1953 95.3ZM62.4231 95V82.04H57.8031V79.4H70.4031V82.04H65.7831V95H62.4231ZM72.5278 95V79.4H75.8878V95H72.5278ZM85.4063 95.28C83.7529 95.28 82.3729 94.9533 81.2663 94.3C80.1729 93.6333 79.3529 92.6933 78.8063 91.48C78.2729 90.2667 78.0063 88.84 78.0063 87.2C78.0063 85.5467 78.2729 84.12 78.8063 82.92C79.3529 81.7067 80.1729 80.7733 81.2663 80.12C82.3729 79.4533 83.7529 79.12 85.4063 79.12C87.0729 79.12 88.4529 79.4533 89.5462 80.12C90.6396 80.7733 91.4529 81.7067 91.9863 82.92C92.5329 84.12 92.8063 85.5467 92.8063 87.2C92.8063 88.84 92.5329 90.2667 91.9863 91.48C91.4529 92.6933 90.6396 93.6333 89.5462 94.3C88.4529 94.9533 87.0729 95.28 85.4063 95.28ZM85.4063 92.76C86.7529 92.76 87.7396 92.28 88.3663 91.32C89.0063 90.3467 89.3263 88.9733 89.3263 87.2C89.3263 85.4133 89.0063 84.04 88.3663 83.08C87.7396 82.12 86.7529 81.64 85.4063 81.64C84.0596 81.64 83.0663 82.12 82.4263 83.08C81.7996 84.04 81.4863 85.4133 81.4863 87.2C81.4863 88.9733 81.7996 90.3467 82.4263 91.32C83.0663 92.28 84.0596 92.76 85.4063 92.76ZM94.9341 95V79.4H100.734L105.574 92.36H106.054V79.4H109.094V95H103.254L98.4341 82.04H97.9741V95H94.9341ZM117.877 95.3C116.664 95.3 115.637 95.14 114.797 94.82C113.971 94.4867 113.297 94.0533 112.777 93.52C112.271 92.9867 111.891 92.4067 111.637 91.78C111.397 91.14 111.257 90.5133 111.217 89.9H114.337C114.364 90.38 114.511 90.84 114.777 91.28C115.044 91.72 115.444 92.08 115.977 92.36C116.511 92.64 117.177 92.78 117.977 92.78C118.844 92.78 119.484 92.6067 119.897 92.26C120.324 91.9 120.537 91.4333 120.537 90.86C120.537 90.3133 120.351 89.8667 119.977 89.52C119.617 89.1733 119.137 88.9 118.537 88.7L116.277 87.94C115.557 87.7 114.864 87.4067 114.197 87.06C113.544 86.7 113.004 86.2333 112.577 85.66C112.151 85.0733 111.937 84.3267 111.937 83.42C111.937 82.4867 112.171 81.7 112.637 81.06C113.117 80.42 113.771 79.9333 114.597 79.6C115.437 79.2667 116.397 79.1 117.477 79.1C118.864 79.1 119.957 79.3333 120.757 79.8C121.557 80.2667 122.137 80.86 122.497 81.58C122.871 82.2867 123.097 83.0267 123.177 83.8H120.057C120.031 83.4267 119.924 83.0733 119.737 82.74C119.564 82.3933 119.284 82.1133 118.897 81.9C118.511 81.6867 117.991 81.58 117.337 81.58C116.604 81.58 116.057 81.7333 115.697 82.04C115.351 82.3467 115.177 82.7333 115.177 83.2C115.177 83.7067 115.357 84.1133 115.717 84.42C116.091 84.7267 116.584 84.9867 117.197 85.2L119.457 85.96C120.191 86.2 120.884 86.5 121.537 86.86C122.191 87.22 122.724 87.7 123.137 88.3C123.564 88.8867 123.777 89.66 123.777 90.62C123.777 92.0733 123.257 93.22 122.217 94.06C121.191 94.8867 119.744 95.3 117.877 95.3Z" fill="white"/>
</svg>
