<svg width="173" height="46" viewBox="0 0 173 46" fill="none" xmlns="http://www.w3.org/2000/svg">
<path d="M19 7.07735C19.6188 6.72009 20.3812 6.72008 21 7.07735L34.5885 14.9226C35.2073 15.2799 35.5885 15.9402 35.5885 16.6547V32.3453C35.5885 33.0598 35.2073 33.7201 34.5885 34.0774L21 41.9226C20.3812 42.2799 19.6188 42.2799 19 41.9226L5.41154 34.0774C4.79274 33.7201 4.41154 33.0598 4.41154 32.3453V16.6547C4.41154 15.9402 4.79274 15.2799 5.41154 14.9226L19 7.07735Z" stroke="#3067FF" stroke-width="2"/>
<circle cx="20" cy="7.5" r="3" fill="black" stroke="#3067FF" stroke-width="2"/>
<circle cx="35.5" cy="16.5" r="3" fill="black" stroke="#3067FF" stroke-width="2"/>
<circle cx="4.5" cy="16.5" r="3" fill="black" stroke="#3067FF" stroke-width="2"/>
<circle cx="4.5" cy="33.5" r="3" fill="black" stroke="#3067FF" stroke-width="2"/>
<circle cx="35.5" cy="33.5" r="3" fill="black" stroke="#3067FF" stroke-width="2"/>
<circle cx="20" cy="41.5" r="3" fill="black" stroke="#3067FF" stroke-width="2"/>
<path d="M12 21L12 29" stroke="#3067FF" stroke-width="2" stroke-linecap="round"/>
<path d="M20 25.6L20 33.6" stroke="#3067FF" stroke-width="2"/>
<path d="M28 21L28 29" stroke="#3067FF" stroke-width="2" stroke-linecap="round"/>
<path d="M12 29.1L20.0021 33.72" stroke="#3067FF" stroke-width="2" stroke-linecap="round"/>
<path d="M12 21L20.0021 25.62" stroke="#3067FF" stroke-width="2" stroke-linecap="round"/>
<path d="M20.004 16.13L27.998 20.764" stroke="#3067FF" stroke-width="2" stroke-linecap="round"/>
<path d="M20 25.62L28.0021 21" stroke="#3067FF" stroke-width="2" stroke-linecap="round"/>
<path d="M12 20.75L20.0021 16.13" stroke="#3067FF" stroke-width="2" stroke-linecap="round"/>
<path d="M28.5021 29.976C28.9804 29.6999 29.1442 29.0883 28.8681 28.61C28.592 28.1317 27.9804 27.9678 27.5021 28.244L28.5021 29.976ZM20.5 34.596L28.5021 29.976L27.5021 28.244L19.5 32.864L20.5 34.596Z" fill="#3067FF"/>
<path d="M49.52 21V5.4H60.16V8.04H52.84V11.48H58.48V13.92H52.84V18.36H60.28V21H49.52ZM66.4153 21V8.04H61.7953V5.4H74.3953V8.04H69.7753V21H66.4153ZM73.1678 21V20.88L77.8678 5.4H83.1278L87.8478 20.88V21H84.4078L80.6278 8H80.1478L76.3278 21H73.1678ZM77.0678 17.1L77.7678 14.58H83.0078L83.7078 17.1H77.0678ZM89.5278 21V5.4H95.6478C97.5945 5.4 99.0011 5.75333 99.8678 6.46C100.734 7.16667 101.168 8.12 101.168 9.32C101.168 10.0933 100.981 10.72 100.608 11.2C100.234 11.68 99.6678 12.0333 98.9078 12.26V12.74C99.9211 12.9667 100.688 13.3667 101.208 13.94C101.741 14.5133 102.008 15.3467 102.008 16.44C102.008 17.8133 101.554 18.92 100.648 19.76C99.7545 20.5867 98.2745 21 96.2078 21H89.5278ZM92.7278 18.6H95.7678C96.7811 18.6 97.5145 18.4 97.9678 18C98.4211 17.5867 98.6478 17.0267 98.6478 16.32C98.6478 15.5333 98.3945 14.96 97.8878 14.6C97.3811 14.2267 96.6745 14.04 95.7678 14.04H92.7278V18.6ZM92.7278 11.68H95.4078C96.1678 11.68 96.7678 11.5267 97.2078 11.22C97.6611 10.9 97.8878 10.4067 97.8878 9.74C97.8878 8.44667 97.0611 7.8 95.4078 7.8H92.7278V11.68ZM104.129 21V5.4H107.489V18.36H114.009V21H104.129ZM116.129 21V5.4H119.489V21H116.129ZM122.528 21V5.4H129.148C130.481 5.4 131.561 5.59333 132.388 5.98C133.228 6.35333 133.841 6.87333 134.228 7.54C134.628 8.19333 134.828 8.95333 134.828 9.82C134.828 10.8067 134.568 11.66 134.048 12.38C133.528 13.1 132.761 13.6133 131.748 13.92L135.248 20.88V21H131.688L128.508 14.4H125.848V21H122.528ZM125.848 11.96H128.668C129.534 11.96 130.208 11.8133 130.688 11.52C131.181 11.2267 131.428 10.7 131.428 9.94C131.428 9.16667 131.181 8.64 130.688 8.36C130.194 8.06667 129.521 7.92 128.668 7.92H125.848V11.96ZM55.26 43.3C54.0467 43.3 53.02 43.14 52.18 42.82C51.3533 42.4867 50.68 42.0533 50.16 41.52C49.6533 40.9867 49.2733 40.4067 49.02 39.78C48.78 39.14 48.64 38.5133 48.6 37.9H51.72C51.7467 38.38 51.8933 38.84 52.16 39.28C52.4267 39.72 52.8267 40.08 53.36 40.36C53.8933 40.64 54.56 40.78 55.36 40.78C56.2267 40.78 56.8667 40.6067 57.28 40.26C57.7067 39.9 57.92 39.4333 57.92 38.86C57.92 38.3133 57.7333 37.8667 57.36 37.52C57 37.1733 56.52 36.9 55.92 36.7L53.66 35.94C52.94 35.7 52.2467 35.4067 51.58 35.06C50.9267 34.7 50.3867 34.2333 49.96 33.66C49.5333 33.0733 49.32 32.3267 49.32 31.42C49.32 30.4867 49.5533 29.7 50.02 29.06C50.5 28.42 51.1533 27.9333 51.98 27.6C52.82 27.2667 53.78 27.1 54.86 27.1C56.2467 27.1 57.34 27.3333 58.14 27.8C58.94 28.2667 59.52 28.86 59.88 29.58C60.2533 30.2867 60.48 31.0267 60.56 31.8H57.44C57.4133 31.4267 57.3067 31.0733 57.12 30.74C56.9467 30.3933 56.6667 30.1133 56.28 29.9C55.8933 29.6867 55.3733 29.58 54.72 29.58C53.9867 29.58 53.44 29.7333 53.08 30.04C52.7333 30.3467 52.56 30.7333 52.56 31.2C52.56 31.7067 52.74 32.1133 53.1 32.42C53.4733 32.7267 53.9667 32.9867 54.58 33.2L56.84 33.96C57.5733 34.2 58.2667 34.5 58.92 34.86C59.5733 35.22 60.1067 35.7 60.52 36.3C60.9467 36.8867 61.16 37.66 61.16 38.62C61.16 40.0733 60.64 41.22 59.6 42.06C58.5733 42.8867 57.1267 43.3 55.26 43.3ZM69.9922 43.28C68.3389 43.28 66.9589 42.9533 65.8522 42.3C64.7589 41.6333 63.9389 40.6933 63.3922 39.48C62.8589 38.2667 62.5922 36.84 62.5922 35.2C62.5922 33.5467 62.8589 32.12 63.3922 30.92C63.9389 29.7067 64.7589 28.7733 65.8522 28.12C66.9589 27.4533 68.3389 27.12 69.9922 27.12C71.6589 27.12 73.0389 27.4533 74.1322 28.12C75.2255 28.7733 76.0389 29.7067 76.5722 30.92C77.1189 32.12 77.3922 33.5467 77.3922 35.2C77.3922 36.84 77.1189 38.2667 76.5722 39.48C76.0389 40.6933 75.2255 41.6333 74.1322 42.3C73.0389 42.9533 71.6589 43.28 69.9922 43.28ZM69.9922 40.76C71.3389 40.76 72.3255 40.28 72.9522 39.32C73.5922 38.3467 73.9122 36.9733 73.9122 35.2C73.9122 33.4133 73.5922 32.04 72.9522 31.08C72.3255 30.12 71.3389 29.64 69.9922 29.64C68.6455 29.64 67.6522 30.12 67.0122 31.08C66.3855 32.04 66.0722 33.4133 66.0722 35.2C66.0722 36.9733 66.3855 38.3467 67.0122 39.32C67.6522 40.28 68.6455 40.76 69.9922 40.76ZM79.52 43V27.4H82.88V40.36H89.4V43H79.52ZM96.8047 43.3C94.5514 43.3 92.8714 42.72 91.7647 41.56C90.6714 40.3867 90.1247 38.7133 90.1247 36.54V27.4H93.5247V36.44C93.5247 37.72 93.7647 38.72 94.2447 39.44C94.738 40.16 95.6047 40.52 96.8447 40.52C98.098 40.52 98.9647 40.16 99.4447 39.44C99.9247 38.72 100.165 37.72 100.165 36.44V27.4H103.485V36.54C103.485 38.7133 102.938 40.3867 101.845 41.56C100.751 42.72 99.0714 43.3 96.8047 43.3ZM110.033 43V30.04H105.413V27.4H118.013V30.04H113.393V43H110.033ZM120.137 43V27.4H123.497V43H120.137ZM133.016 43.28C131.362 43.28 129.982 42.9533 128.876 42.3C127.782 41.6333 126.962 40.6933 126.416 39.48C125.882 38.2667 125.616 36.84 125.616 35.2C125.616 33.5467 125.882 32.12 126.416 30.92C126.962 29.7067 127.782 28.7733 128.876 28.12C129.982 27.4533 131.362 27.12 133.016 27.12C134.682 27.12 136.062 27.4533 137.156 28.12C138.249 28.7733 139.062 29.7067 139.596 30.92C140.142 32.12 140.416 33.5467 140.416 35.2C140.416 36.84 140.142 38.2667 139.596 39.48C139.062 40.6933 138.249 41.6333 137.156 42.3C136.062 42.9533 134.682 43.28 133.016 43.28ZM133.016 40.76C134.362 40.76 135.349 40.28 135.976 39.32C136.616 38.3467 136.936 36.9733 136.936 35.2C136.936 33.4133 136.616 32.04 135.976 31.08C135.349 30.12 134.362 29.64 133.016 29.64C131.669 29.64 130.676 30.12 130.036 31.08C129.409 32.04 129.096 33.4133 129.096 35.2C129.096 36.9733 129.409 38.3467 130.036 39.32C130.676 40.28 131.669 40.76 133.016 40.76ZM142.543 43V27.4H148.343L153.183 40.36H153.663V27.4H156.703V43H150.863L146.043 30.04H145.583V43H142.543ZM165.487 43.3C164.273 43.3 163.247 43.14 162.407 42.82C161.58 42.4867 160.907 42.0533 160.387 41.52C159.88 40.9867 159.5 40.4067 159.247 39.78C159.007 39.14 158.867 38.5133 158.827 37.9H161.947C161.973 38.38 162.12 38.84 162.387 39.28C162.653 39.72 163.053 40.08 163.587 40.36C164.12 40.64 164.787 40.78 165.587 40.78C166.453 40.78 167.093 40.6067 167.507 40.26C167.933 39.9 168.147 39.4333 168.147 38.86C168.147 38.3133 167.96 37.8667 167.587 37.52C167.227 37.1733 166.747 36.9 166.147 36.7L163.887 35.94C163.167 35.7 162.473 35.4067 161.807 35.06C161.153 34.7 160.613 34.2333 160.187 33.66C159.76 33.0733 159.547 32.3267 159.547 31.42C159.547 30.4867 159.78 29.7 160.247 29.06C160.727 28.42 161.38 27.9333 162.207 27.6C163.047 27.2667 164.007 27.1 165.087 27.1C166.473 27.1 167.567 27.3333 168.367 27.8C169.167 28.2667 169.747 28.86 170.107 29.58C170.48 30.2867 170.707 31.0267 170.787 31.8H167.667C167.64 31.4267 167.533 31.0733 167.347 30.74C167.173 30.3933 166.893 30.1133 166.507 29.9C166.12 29.6867 165.6 29.58 164.947 29.58C164.213 29.58 163.667 29.7333 163.307 30.04C162.96 30.3467 162.787 30.7333 162.787 31.2C162.787 31.7067 162.967 32.1133 163.327 32.42C163.7 32.7267 164.193 32.9867 164.807 33.2L167.067 33.96C167.8 34.2 168.493 34.5 169.147 34.86C169.8 35.22 170.333 35.7 170.747 36.3C171.173 36.8867 171.387 37.66 171.387 38.62C171.387 40.0733 170.867 41.22 169.827 42.06C168.8 42.8867 167.353 43.3 165.487 43.3Z" fill="white"/>
</svg>
