<svg width="170" height="41" viewBox="0 0 170 41" fill="none" xmlns="http://www.w3.org/2000/svg">
<rect width="170" height="41" fill="#BCBCBC"/>
<g clip-path="url(#clip0_161_7199)">
<mask id="mask0_161_7199" style="mask-type:luminance" maskUnits="userSpaceOnUse" x="9" y="11" width="152" height="18">
<path d="M161 11.5H9V28.9664H161V11.5Z" fill="white"/>
</mask>
<g mask="url(#mask0_161_7199)">
<path d="M9 11.8279H11.9062V24.8393C11.9062 25.5914 12.0643 26.3693 12.9155 26.3693C13.7667 26.3693 13.9856 25.6429 13.9856 24.8393V11.8279H16.4419V24.4343C16.4419 27.7386 15.0557 28.96 12.7392 28.96C10.4227 28.96 9 27.7322 9 24.4343V11.8279Z" fill="black"/>
<path d="M19.8711 11.8279H23.13C25.8964 11.8279 27.7265 13.0557 27.7265 16.5915C27.7265 18.0057 27.3252 19.8957 26.0301 20.6993L27.7508 28.6257H24.8263L23.4644 21.4064H22.7773V28.6257H19.8711V11.8279ZM22.7773 18.9507H23.3549C24.425 18.9507 24.8263 17.8193 24.8263 16.6172C24.8263 14.7979 24.2001 14.2836 23.2151 14.2836H22.7652V18.9572L22.7773 18.9507Z" fill="black"/>
<path d="M30.6327 11.8279H34.2016C35.9892 11.8279 38.1293 12.8693 38.1293 16.0772C38.1293 17.9672 37.3268 19.4264 35.5453 19.825V19.8764C37.5335 20.3779 38.4455 21.8307 38.4455 23.9586C38.4455 27.0314 36.4816 28.6322 34.3415 28.6322H30.6388V11.8279H30.6327ZM33.5389 18.7257C34.986 18.7257 35.369 18.0186 35.369 16.5079C35.369 14.5986 34.992 14.2643 33.5389 14.29V18.7257ZM33.5389 26.1829C35.2839 26.1829 35.5453 25.4564 35.5453 23.7014C35.5453 22.1714 35.1866 21.2972 33.5389 21.3164V26.1829Z" fill="black"/>
<path d="M42.823 11.8279H47.0182L48.9821 28.6322H46.1913L45.7657 24.9036H43.4189L43.0176 28.6322H40.5856L42.823 11.8279ZM44.6713 14.425H44.6227L43.7107 22.4479H45.5165L44.6653 14.425H44.6713Z" fill="black"/>
<path d="M51.6147 11.8279H54.448L57.105 20.7057H57.1536V11.8279H59.4762V28.6386H57.2205L54.1136 18.4686H54.065V28.6386H51.6086V11.8279H51.6147Z" fill="black"/>
<path d="M72.7305 11.5C75.2963 11.5 76.9744 13.6021 76.9744 20.23C76.9744 26.8579 75.3024 28.96 72.7305 28.96C70.1587 28.96 68.4867 26.8579 68.4867 20.23C68.4867 13.6021 70.1648 11.5 72.7305 11.5ZM71.6665 22.0043C71.6665 25.6364 72.0678 26.3693 72.7366 26.3693C73.4054 26.3693 73.8067 25.6429 73.8067 22.0043V18.4686C73.8067 14.83 73.4054 14.1036 72.7366 14.1036C72.0678 14.1036 71.6665 14.83 71.6665 18.4686V22.0043Z" fill="black"/>
<path d="M79.9901 11.8279H82.8964V24.8393C82.8964 25.5914 83.0544 26.3693 83.9056 26.3693C84.7082 26.3693 84.9757 25.6429 84.9757 24.8393V11.8279H87.432V24.4343C87.432 27.7386 86.0458 28.96 83.7293 28.96C81.4128 28.96 80.0023 27.7322 80.0023 24.4343V11.8279H79.9901Z" fill="black"/>
<path d="M92.2048 14.425H89.7059V11.8279H97.6038V14.425H95.105V28.6386H92.1987V14.425H92.2048Z" fill="black"/>
<path d="M99.9933 11.8279H106.493V14.425H102.9V18.9122H105.556V21.6443H102.9V28.6257H99.9933V11.8279Z" fill="black"/>
<path d="M108.986 11.8279H111.892V28.6386H108.986V11.8279Z" fill="black"/>
<path d="M116.671 14.425H114.172V11.8279H122.07V14.425H119.571V28.6386H116.665V14.425H116.671Z" fill="black"/>
<path d="M125.797 14.425H123.298V11.8279H131.196V14.425H128.697V28.6386H125.791V14.425H125.797Z" fill="black"/>
<path d="M133.585 11.8279H140.146V14.425H136.485V18.7257H139.185V21.4643H136.485V26.0414H140.304V28.6386H133.585V11.8279Z" fill="black"/>
<path d="M143.119 11.8279H146.378C149.144 11.8279 150.974 13.0557 150.974 16.5915C150.974 18.0057 150.573 19.8957 149.278 20.6993L150.998 28.6257H148.074L146.712 21.4064H146.019V28.6257H143.113V11.8279H143.119ZM146.025 18.9507H146.609C147.679 18.9507 148.08 17.8193 148.08 16.6172C148.08 14.7979 147.454 14.2836 146.469 14.2836H146.019V18.9572L146.025 18.9507Z" fill="black"/>
<path d="M155.868 23.7721C155.868 24.7171 155.868 26.3693 157.115 26.3693C158.076 26.3693 158.41 25.4243 158.41 24.7429C158.41 21.7471 153.145 21.0593 153.145 16.0771C153.145 13.5571 154.446 11.5 156.902 11.5C159.51 11.5 160.52 13.6021 160.58 16.6171H157.99C157.99 15.6786 157.99 14.0971 156.829 14.0971C156.136 14.0971 155.735 14.7143 155.735 15.6271C155.735 18.4814 161 19.4521 161 24.3379C161 26.9093 159.614 28.9664 157.005 28.9664C153.899 28.9664 153.278 26.0864 153.278 23.7786H155.868V23.7721Z" fill="black"/>
</g>
</g>
<defs>
<clipPath id="clip0_161_7199">
<rect width="152" height="18" fill="white" transform="translate(9 11.5)"/>
</clipPath>
</defs>
</svg>
